<svg fill="none" height="48" viewBox="0 0 48 48" width="48" xmlns="http://www.w3.org/2000/svg"><path d="m0 0h48v48h-48z" fill="#fff" fill-opacity=".01"/><path d="m24 44c8.2347 0 14.9998-6.5258 14.9998-14.9019 0-2.0563-.1045-4.2606-1.2443-7.6865-1.1398-3.4258-1.3694-3.868-2.5746-5.9837-.5149 4.3175-3.2699 6.1169-3.9698 6.6547 0-.5595-1.6666-6.7467-4.1935-10.4487-2.4806-3.6339-5.8542-6.01798-7.8323-7.6339 0 3.06977-.8634 7.6339-2.0999 9.9594s-1.4687 2.4102-3.0132 4.1408c-1.5444 1.7306-2.2533 2.2651-3.5448 4.3649-1.29144 2.0999-1.5274 4.8967-1.5274 6.953 0 8.3761 6.7653 14.5819 15 14.5819z" fill="#2f88ff" stroke="#000" stroke-linejoin="round" stroke-width="4"/></svg>